/* XPM */
static char * c_b1_xpm[] = {
"20 19 6 1",
" 	c None",
".	c #FFFFFF",
"+	c #404040",
"@	c #D4D0C8",
"#	c #808080",
"$	c #000000",
"                    ",
"                    ",
"  ...............+  ",
"  .@@@@@@@@@@@@@#+  ",
"  .@@@@@@@@@@@@@#+  ",
"  .@@@$$@@@@$$@@#+  ",
"  .@@@@$$@@$$@@@#+  ",
"  .@@@@@$$$$@@@@#+  ",
"  .@@@@@@$$@@@@@#+  ",
"  .@@@@@$$$$@@@@#+  ",
"  .@@@@$$@@$$@@@#+  ",
"  .@@@$$@@@@$$@@#+  ",
"  .@@@@@@@@@@@@@#+  ",
"  .@@@@@@@@@@@@@#+  ",
"  .##############+  ",
"  ++++++++++++++++  ",
"                    ",
"                    ",
"@@@@@@@@@@@@@@@@@@@@"};
