/* XPM */
static char * c_b3_xpm[] = {
"16 19 6 1",
" 	c None",
".	c #FFFFFF",
"+	c #404040",
"@	c #D4D0C8",
"#	c #808080",
"$	c #000000",
"                ",
"                ",
"...............+",
".@@@@@@@@@@@@@#+",
".@@@@@@@@@@@@@#+",
".@@@@@@@@@@@@@#+",
".@@@@@@@@@@@@@#+",
".@@@@@@@@@@@@@#+",
".@@@@@@@@@@@@@#+",
".@@@@@@@@@@@@@#+",
".@@@@@@@@@@@@@#+",
".@@@$$$$$$@@@@#+",
".@@@$$$$$$@@@@#+",
".@@@@@@@@@@@@@#+",
".##############+",
"++++++++++++++++",
"                ",
"                ",
"@@@@@@@@@@@@@@@@"};
