/* XPM */
static char * wtitle_xpm[] = {
"15 21 7 1",
" 	c #FFFFFF",
".	c #F5F5F5",
"+	c #EEEEEE",
"@	c #EDEDED",
"#	c #ECECEC",
"$	c #E2E2E2",
"%	c #E1E1E1",
"               ",
"...............",
"+++++++++++++++",
"@@@@@@@@@@@@@@@",
"###############",
"###############",
"###############",
"$$$$$$$$$$$$$$$",
"$$$$$$$$$$$$$$$",
"%%%%%%%%%%%%%%%",
"$$$$$$$$$$$$$$$",
"$$$$$$$$$$$$$$$",
"$$$$$$$$$$$$$$$",
"$$$$$$$$$$$$$$$",
"$$$$$$$$$$$$$$$",
"$$$$$$$$$$$$$$$",
"$$$$$$$$$$$$$$$",
"$$$$$$$$$$$$$$$",
"$$$$$$$$$$$$$$$",
"$$$$$$$$$$$$$$$",
"$$$$$$$$$$$$$$$"};
