/* XPM */
static char * wtitled_xpm[] = {
"15 21 7 1",
" 	c None",
".	c #DCDCDC",
"+	c #D3D3D3",
"@	c #CDCDCD",
"#	c #CCCCCC",
"$	c #C3C3C3",
"%	c #C2C2C2",
"...............",
"+++++++++++++++",
"@@@@@@@@@@@@@@@",
"###############",
"###############",
"###############",
"###############",
"$$$$$$$$$$$$$$$",
"$$$$$$$$$$$$$$$",
"%%%%%%%%%%%%%%%",
"$$$$$$$$$$$$$$$",
"$$$$$$$$$$$$$$$",
"$$$$$$$$$$$$$$$",
"$$$$$$$$$$$$$$$",
"$$$$$$$$$$$$$$$",
"$$$$$$$$$$$$$$$",
"$$$$$$$$$$$$$$$",
"$$$$$$$$$$$$$$$",
"$$$$$$$$$$$$$$$",
"$$$$$$$$$$$$$$$",
"$$$$$$$$$$$$$$$"};
